<svg xmlns="http://www.w3.org/2000/svg" width="404" height="370" viewBox="0 0 404 370">
<g>
<path d="M 249.57,242.52 L 249.31,242.83 L 248.63,243.61 L 248.07,244.25 L 246.86,245.95 L 246.56,246.75 L 246.64,246.94 L 246.96,247.14 L 247.32,246.97 L 248.18,246.42 L 248.78,245.82 L 249.74,245.11 L 250.26,244.95 L 250.37,245.07 L 250.38,245.18 L 250.30,245.32 L 250.11,245.63 L 249.95,245.86 L 249.12,246.94 L 248.49,247.70 L 247.09,249.34 L 246.23,250.30 L 244.41,252.32 L 243.39,253.41 L 240.52,256.40 L 238.84,258.07 L 238.17,258.69 L 236.96,259.78 L 236.58,260.06 L 236.25,260.28 L 236.15,260.32 L 236.00,260.35 L 236.00,260.27 L 236.34,259.21 L 236.87,258.16 L 237.25,257.50 L 238.10,256.11 L 238.61,255.33 L 239.68,253.73 L 240.27,252.90 L 242.74,249.53 L 243.95,248.05 L 245.14,246.61 L 245.68,246.01 L 246.73,244.89 L 247.17,244.50 L 248.92,242.93 L 249.55,242.40 L 249.61,242.38 M 197.72,224.39 L 197.69,225.34 L 197.31,226.42 L 196.99,227.02 L 196.34,228.95 L 196.50,229.90 L 196.88,230.28 L 197.11,231.27 L 196.90,232.38 L 196.61,233.18 L 195.90,234.95 L 195.34,236.12 L 194.10,238.65 L 193.28,240.22 L 192.24,242.16 L 191.76,243.03 L 190.80,244.73 L 190.36,245.48 L 189.51,246.90 L 189.13,247.51 L 188.38,248.65 L 188.06,249.11 L 187.45,249.95 L 187.19,250.24 L 186.72,250.75 L 186.55,250.87 L 186.23,251.03 L 186.14,250.97 L 186.00,250.75 L 186.00,250.50 L 186.13,249.97 L 186.33,249.36 L 186.49,248.95 L 186.83,248.06 L 187.04,247.52 L 187.50,246.40 L 187.77,245.76 L 188.92,243.03 L 189.59,241.50 L 190.98,238.35 L 191.70,236.75 L 193.14,233.56 L 193.82,232.08 L 195.15,229.24 L 195.71,228.08 L 196.24,226.98 L 196.48,226.51 L 196.92,225.65 L 197.09,225.33 L 197.41,224.75 L 197.52,224.59 L 197.70,224.36 M 168.66,206.33 L 168.68,206.76 L 168.57,207.31 L 168.46,207.68 L 167.89,209.41 L 167.46,210.43 L 166.84,212.15 L 166.58,213.13 L 166.53,213.54 L 166.49,214.31 L 166.55,214.61 L 166.72,215.16 L 166.89,215.36 L 167.15,216.19 L 167.07,216.96 L 166.90,217.47 L 166.48,218.56 L 166.13,219.23 L 165.35,220.67 L 164.82,221.53 L 163.27,224.03 L 162.66,224.95 L 161.55,226.57 L 161.16,227.07 L 160.47,227.85 L 160.28,227.93 L 160.00,227.90 L 160.00,227.59 L 160.09,227.12 L 160.24,226.61 L 160.36,226.27 L 160.91,224.68 L 161.30,223.64 L 162.14,221.41 L 162.64,220.16 L 163.65,217.60 L 164.18,216.30 L 165.24,213.72 L 165.75,212.52 L 166.73,210.23 L 167.14,209.29 L 167.91,207.59 L 168.17,207.07 L 168.41,206.61 L 168.50,206.48 L 168.63,206.30 M 158.46,198.38 L 158.47,198.63 L 158.44,198.87 L 158.34,199.44 L 158.25,199.85 L 158.05,200.74 L 157.90,201.30 L 157.59,202.52 L 157.40,203.25 L 157.08,204.50 L 157.01,204.92 L 157.07,204.94 L 157.26,204.84 L 157.46,204.60 L 157.94,203.99 L 158.31,203.50 L 159.27,202.38 L 159.77,201.94 L 159.94,201.87 L 160.25,201.81 L 160.33,201.92 L 160.44,202.22 L 160.43,202.49 L 160.36,203.10 L 160.25,203.52 L 159.99,204.42 L 159.79,204.97 L 159.35,206.12 L 159.06,206.78 L 158.43,208.14 L 158.05,208.90 L 157.21,210.54 L 156.81,211.27 L 156.03,212.65 L 155.70,213.21 L 155.07,214.21 L 154.84,214.52 L 154.44,215.00 L 154.36,215.00 L 154.02,214.58 L 153.92,213.91 L 153.93,213.42 L 153.99,212.35 L 154.06,211.71 L 154.25,210.36 L 154.38,209.62 L 155.01,206.53 L 155.45,205.01 L 156.37,202.08 L 156.88,201.00 L 157.53,199.67 L 157.88,199.00 L 158.01,198.78 L 158.24,198.41 L 158.32,198.35 L 158.44,198.29 Z" fill="rgba(66,66,66,1)"/>
<path d="M 178.97,218.55 L 179.16,219.48 L 179.07,220.23 L 178.76,221.91 L 178.43,223.04 L 177.63,225.50 L 177.05,227.02 L 175.76,230.26 L 174.92,232.18 L 173.12,236.22 L 172.03,238.54 L 169.73,243.40 L 168.38,246.14 L 165.56,251.82 L 163.95,254.98 L 160.81,261.23 L 158.97,264.95 L 158.25,266.47 L 157.55,267.92 L 157.27,268.54 L 156.73,269.69 L 156.53,270.14 L 156.17,270.96 L 156.07,271.22 L 155.91,271.65 L 155.92,271.71 L 156.45,272.44 L 157.21,272.57 L 157.78,272.45 L 159.05,272.10 L 159.87,271.74 L 161.63,270.92 L 162.69,270.33 L 164.40,269.45 L 165.35,269.05 L 165.73,268.94 L 166.44,268.78 L 166.70,268.80 L 167.16,268.89 L 167.30,269.03 L 167.52,269.38 L 167.54,269.64 L 167.51,270.24 L 167.41,270.64 L 167.16,271.49 L 166.94,272.02 L 166.44,273.13 L 166.11,273.78 L 165.33,275.29 L 164.99,275.91 L 164.32,277.03 L 164.00,277.46 L 163.35,278.23 L 163.01,278.48 L 162.30,278.89 L 161.89,278.98 L 161.02,279.07 L 160.50,278.99 L 159.40,278.77 L 158.72,278.55 L 157.29,278.03 L 156.42,277.67 L 154.57,276.88 L 153.45,276.39 L 150.27,274.98 L 148.32,274.11 L 147.49,273.75 L 145.95,273.07 L 145.40,272.83 L 144.48,272.42 L 144.31,272.35 L 143.66,271.50 L 143.58,270.63 L 143.75,270.17 L 144.00,269.38 L 144.03,269.09 L 143.97,269.05 L 143.79,269.06 L 143.62,269.16 L 143.20,269.45 L 142.90,269.69 L 141.46,270.32 L 140.47,270.29 L 140.06,270.04 L 139.79,269.25 L 140.13,268.35 L 140.60,267.68 L 141.13,266.96 L 141.47,266.53 L 142.21,265.64 L 142.67,265.12 L 143.64,264.02 L 144.22,263.40 L 145.43,262.09 L 146.13,261.35 L 149.57,257.68 L 151.55,255.50 L 152.40,254.54 L 154.00,252.69 L 154.67,251.88 L 155.91,250.34 L 156.40,249.67 L 157.29,248.40 L 157.62,247.86 L 158.20,246.83 L 158.37,246.40 L 158.65,245.59 L 158.69,245.25 L 158.69,244.63 L 158.59,244.38 L 158.61,243.34 L 158.96,242.44 L 159.31,241.88 L 160.12,240.68 L 160.71,239.97 L 161.99,238.47 L 162.82,237.60 L 165.09,235.03 L 166.79,232.97 L 167.66,231.85 L 169.41,229.57 L 170.24,228.44 L 171.82,226.22 L 172.49,225.23 L 174.42,222.42 L 175.62,220.78 L 176.13,220.12 L 177.09,218.94 L 177.44,218.57 L 178.03,218.00 L 178.15,218.00 M 211.32,158.22 L 211.58,158.37 L 212.27,158.86 L 212.65,159.14 L 213.54,159.87 L 214.01,160.27 L 215.08,161.21 L 216.19,162.21 L 218.80,164.72 L 220.15,166.04 L 223.09,169.03 L 226.06,172.09 L 232.06,178.69 L 233.48,180.31 L 236.07,183.36 L 239.32,187.46 L 240.17,188.59 L 241.66,190.55 L 242.37,191.49 L 243.65,193.09 L 244.26,193.85 L 245.37,195.15 L 245.91,195.76 L 246.89,196.80 L 247.86,197.79 L 249.65,199.20 L 252.50,200.87 L 253.88,201.54 L 256.12,202.82 L 256.61,203.11 L 257.30,203.60 L 257.81,204.10 L 257.90,204.31 L 258.43,204.51 L 259.46,204.38 L 259.66,204.30 L 260.21,204.39 L 260.51,204.47 L 261.22,204.84 L 261.96,205.27 L 263.70,206.76 L 264.58,207.58 L 266.27,209.56 L 268.32,212.65 L 268.52,213.05 L 269.40,214.20 L 269.90,214.82 L 271.24,216.30 L 276.16,221.01 L 277.90,222.51 L 281.37,225.54 L 282.17,226.24 L 283.52,227.43 L 284.99,228.74 L 285.67,229.36 L 286.92,230.34 L 287.20,230.54 L 287.65,230.82 L 288.07,231.00 L 288.15,231.00 L 287.98,231.30 L 285.79,234.94 L 284.64,236.68 L 282.31,240.11 L 281.08,241.73 L 275.59,248.40 L 271.59,252.75 L 269.69,254.61 L 267.82,256.41 L 266.96,257.19 L 265.30,258.64 L 264.58,259.21 L 263.23,260.22 L 262.70,260.53 L 261.75,261.00 L 261.47,261.00 L 260.17,260.37 L 259.16,259.44 L 258.67,258.82 L 257.72,257.49 L 257.35,256.80 L 256.70,255.41 L 256.57,254.80 L 256.26,253.59 L 255.94,252.57 L 255.72,251.95 L 255.25,250.63 L 254.96,249.85 L 254.32,248.21 L 253.94,247.25 L 253.03,245.66 L 252.37,245.00 L 252.11,245.00 L 251.93,245.06 L 251.77,245.17 L 251.39,245.44 L 251.15,245.64 L 249.99,246.66 L 249.22,247.40 L 247.56,249.02 L 246.61,250.00 L 245.07,251.59 L 246.23,250.30 L 247.09,249.34 L 248.49,247.70 L 249.12,246.94 L 249.95,245.86 L 250.11,245.63 L 250.30,245.32 L 250.38,245.18 L 250.37,245.07 L 250.26,244.95 L 249.74,245.11 L 248.78,245.82 L 248.18,246.42 L 247.32,246.97 L 246.96,247.14 L 246.64,246.94 L 246.56,246.75 L 246.86,245.95 L 248.07,244.25 L 248.63,243.61 L 249.31,242.83 L 249.57,242.52 L 249.61,242.38 L 249.55,242.40 L 248.92,242.93 L 247.17,244.50 L 246.73,244.89 L 245.68,246.01 L 245.14,246.61 L 243.95,248.05 L 242.74,249.53 L 240.27,252.90 L 239.88,253.46 L 241.20,251.50 L 242.43,249.79 L 245.00,246.30 L 246.38,244.55 L 248.31,241.84 L 249.55,239.87 L 250.11,238.88 L 251.17,236.92 L 251.58,236.02 L 252.32,234.30 L 252.52,233.62 L 253.04,231.42 L 253.33,229.69 L 253.45,228.75 L 253.87,224.82 L 253.95,222.93 L 254.02,221.08 L 254.02,220.25 L 253.99,218.68 L 253.94,218.05 L 253.81,216.91 L 253.71,216.55 L 253.48,216.00 L 253.32,216.00 L 252.75,216.29 L 252.18,216.75 L 251.82,217.08 L 250.24,218.63 L 249.38,219.58 L 247.67,221.54 L 247.00,222.42 L 246.36,223.27 L 246.12,223.63 L 245.72,224.29 L 245.63,224.52 L 244.93,225.56 L 244.32,226.00 L 244.03,226.00 L 243.30,226.45 L 243.00,227.11 L 243.00,227.53 L 242.56,228.78 L 241.91,229.48 L 241.50,229.64 L 240.44,230.45 L 240.00,231.22 L 240.00,231.61 L 239.70,232.59 L 239.25,233.00 L 238.97,233.00 L 238.04,233.51 L 237.45,234.27 L 237.27,234.75 L 236.12,236.72 L 234.93,238.31 L 234.30,238.99 L 232.68,240.99 L 232.30,241.55 L 232.18,241.78 L 232.00,242.18 L 232.00,242.29 L 231.78,242.83 L 231.44,243.33 L 231.20,243.62 L 230.05,244.89 L 229.35,245.53 L 227.92,246.80 L 227.29,247.25 L 226.68,247.67 L 226.44,247.80 L 225.99,248.00 L 225.85,248.00 L 225.13,247.71 L 225.03,247.23 L 225.16,246.82 L 225.56,245.89 L 225.95,245.25 L 226.87,243.85 L 227.53,242.95 L 228.84,240.99 L 229.92,239.21 L 230.52,238.18 L 233.03,233.71 L 234.15,231.51 L 237.61,224.90 L 238.67,222.95 L 239.11,222.16 L 239.92,220.71 L 240.19,220.27 L 241.37,217.67 L 241.56,216.92 L 241.58,216.63 L 241.56,216.10 L 241.47,215.96 L 241.44,214.70 L 241.88,213.65 L 242.28,213.19 L 243.58,211.28 L 244.23,209.89 L 244.42,209.26 L 244.70,208.06 L 244.66,207.65 L 244.45,207.00 L 244.13,207.00 L 243.25,207.27 L 242.71,207.66 L 242.56,207.91 L 241.62,208.40 L 240.67,208.46 L 240.16,208.33 L 239.10,208.28 L 238.24,208.42 L 237.75,208.58 L 236.71,208.95 L 236.13,209.22 L 234.94,209.82 L 234.28,210.20 L 231.53,211.91 L 229.97,213.07 L 226.75,215.56 L 225.00,217.08 L 223.12,218.67 L 221.99,219.58 L 221.49,219.95 L 220.53,220.65 L 220.11,220.92 L 219.32,221.41 L 218.99,221.58 L 217.83,222.05 L 217.50,221.97 L 217.00,221.61 L 217.00,221.13 L 217.32,220.07 L 217.82,218.74 L 218.19,217.84 L 218.99,215.89 L 219.47,214.76 L 220.48,212.41 L 221.04,211.16 L 225.07,202.06 L 223.02,198.03 L 221.48,195.41 L 220.62,194.38 L 220.26,194.21 L 219.58,194.12 L 219.29,194.42 L 218.74,195.25 L 218.50,196.00 L 217.73,197.41 L 217.07,198.00 L 216.77,198.00 L 216.18,198.19 L 216.13,198.46 L 216.31,198.64 L 216.41,199.12 L 216.33,199.62 L 216.23,199.94 L 215.67,201.34 L 215.27,202.09 L 214.40,203.57 L 213.97,204.11 L 213.54,204.60 L 213.36,204.76 L 213.00,205.00 L 212.86,205.00 L 212.50,205.28 L 212.19,205.71 L 212.02,206.03 L 211.32,207.54 L 211.00,208.50 L 209.91,210.97 L 209.54,211.55 L 209.37,211.72 L 209.05,212.00 L 208.92,212.00 L 208.32,212.22 L 208.13,212.54 L 208.17,212.75 L 207.90,214.23 L 207.33,215.62 L 206.96,216.33 L 206.17,217.70 L 205.79,218.19 L 205.42,218.64 L 205.26,218.78 L 204.95,219.00 L 204.84,219.00 L 204.25,219.42 L 204.00,220.04 L 204.00,220.43 L 203.63,221.83 L 203.09,222.83 L 202.75,223.20 L 202.40,223.66 L 202.08,224.15 L 201.88,224.47 L 200.98,225.95 L 200.42,226.93 L 199.24,229.03 L 198.58,230.23 L 197.25,232.72 L 196.57,234.02 L 194.44,238.07 L 193.14,240.50 L 192.72,241.25 L 193.28,240.22 L 194.10,238.65 L 195.34,236.12 L 195.90,234.95 L 196.61,233.18 L 196.90,232.38 L 197.11,231.27 L 196.88,230.28 L 196.50,229.90 L 196.34,228.95 L 196.99,227.02 L 197.31,226.42 L 197.69,225.34 L 197.72,224.39 L 197.70,224.36 L 197.52,224.59 L 197.41,224.75 L 197.09,225.33 L 196.92,225.65 L 196.48,226.51 L 196.24,226.98 L 195.71,228.08 L 195.15,229.24 L 193.82,232.08 L 193.14,233.56 L 191.70,236.75 L 190.98,238.35 L 189.59,241.50 L 189.23,242.33 L 189.68,241.26 L 190.61,239.05 L 191.12,237.87 L 193.27,232.92 L 194.45,230.28 L 196.89,224.90 L 198.14,222.22 L 200.64,216.89 L 201.84,214.40 L 204.20,209.59 L 205.25,207.54 L 206.28,205.56 L 206.75,204.68 L 207.65,203.03 L 208.05,202.34 L 209.59,199.55 L 210.18,198.25 L 210.29,197.79 L 210.37,196.96 L 210.24,196.63 L 209.87,196.01 L 209.53,195.68 L 208.80,194.54 L 208.52,193.48 L 208.48,192.67 L 208.45,191.81 L 208.46,191.29 L 208.50,190.18 L 208.54,189.51 L 208.63,188.11 L 208.70,187.29 L 208.85,185.55 L 208.95,184.54 L 209.38,177.91 L 209.43,175.96 L 209.42,175.09 L 209.39,173.40 L 209.35,172.67 L 209.24,171.28 L 209.16,170.70 L 208.98,169.64 L 208.87,169.23 L 208.62,168.53 L 208.47,168.32 L 208.15,168.00 L 207.96,168.00 L 207.43,168.35 L 206.91,168.91 L 206.58,169.32 L 205.12,171.26 L 204.34,172.50 L 201.96,175.68 L 201.24,176.41 L 200.94,176.64 L 200.39,177.00 L 200.22,177.00 L 199.16,177.41 L 198.60,177.96 L 199.10,176.74 L 199.52,174.00 L 199.56,173.38 L 199.95,171.89 L 200.19,171.11 L 200.94,169.41 L 201.75,167.68 L 204.02,164.14 L 204.61,163.30 L 205.84,161.76 L 206.45,161.02 L 207.65,159.80 L 208.24,159.25 L 209.32,158.48 L 210.71,158.00 L 210.85,158.00 M 238.92,258.00 L 238.23,258.65 L 236.98,259.80 L 236.60,260.09 L 236.26,260.34 L 236.15,260.39 L 236.00,260.43 L 236.00,260.36 L 236.00,260.35 L 236.15,260.32 L 236.25,260.28 L 236.58,260.06 L 236.96,259.78 L 238.17,258.69 L 238.84,258.07 L 239.23,257.68 M 236.22,259.59 L 236.22,259.58 L 236.22,259.58 M 187.66,249.67 L 187.61,249.72 L 187.76,249.52 M 138.02,209.25 L 138.40,209.63 L 138.79,209.87 L 139.11,210.80 L 138.93,211.98 L 138.63,212.91 L 138.29,213.89 L 138.07,214.47 L 137.58,215.70 L 137.28,216.42 L 136.64,217.91 L 136.25,218.77 L 135.45,220.56 L 134.98,221.57 L 132.94,225.95 L 131.68,228.65 L 131.13,229.80 L 130.11,231.94 L 129.74,232.70 L 129.39,233.41 L 129.26,233.66 L 129.03,234.12 L 128.96,234.24 L 128.28,235.92 L 128.00,237.09 L 128.00,237.52 L 127.56,238.78 L 126.91,239.48 L 126.50,239.64 L 125.44,240.44 L 125.00,241.18 L 125.00,241.55 L 124.67,242.70 L 124.17,243.39 L 123.86,243.59 L 123.58,243.60 L 123.42,243.41 L 123.36,243.22 L 123.24,242.76 L 123.19,242.42 L 123.11,241.67 L 123.09,241.18 L 123.04,240.11 L 123.03,239.45 L 123.03,238.05 L 123.04,237.22 L 123.07,235.46 L 123.09,234.45 L 123.16,232.32 L 123.20,231.10 L 123.29,227.88 L 123.31,225.94 L 123.31,225.08 L 123.28,223.42 L 123.25,222.69 L 123.18,221.31 L 123.12,220.73 L 123.00,219.62 L 122.91,219.18 L 122.74,218.35 L 122.63,218.05 L 122.40,217.50 L 122.26,217.33 L 121.97,217.07 L 121.81,217.04 L 121.76,217.04 L 122.38,216.25 L 123.38,214.38 L 123.50,213.99 L 124.01,213.34 L 124.32,213.04 L 125.30,212.51 L 125.87,212.25 L 127.48,211.77 L 130.76,211.04 L 131.69,210.85 L 133.42,210.47 L 134.25,210.28 L 135.67,209.91 L 136.32,209.73 L 137.27,209.41 L 137.93,209.09 M 109.02,234.00 L 109.72,234.11 L 110.03,234.19 L 110.47,234.47 L 110.66,234.64 L 110.88,235.14 L 110.88,235.17 L 110.60,234.69 L 110.38,234.52 L 109.90,234.21 L 109.59,234.12 L 108.91,234.00 M 108.50,234.00 L 105.17,233.61 L 108.57,234.00 M 105.08,233.60 L 105.05,233.60 L 103.55,232.99 M 102.35,232.13 L 103.18,232.84 L 103.17,232.84 L 102.34,232.12 L 102.05,231.85 M 190.25,173.24 L 190.40,173.37 L 190.64,173.83 L 191.00,175.89 L 191.00,176.51 L 191.11,177.40 L 191.20,177.81 L 191.57,178.35 L 191.80,178.59 L 192.56,178.91 L 194.25,179.26 L 195.06,179.38 L 194.64,179.36 L 193.93,179.26 L 191.15,179.17 L 190.51,179.27 L 190.31,179.35 L 190.00,179.55 L 190.00,179.68 L 189.84,180.22 L 189.59,180.70 L 189.40,180.99 L 188.52,182.21 L 187.96,182.81 L 186.70,184.36 L 186.48,184.72 L 186.45,184.83 L 186.44,185.00 L 186.52,185.00 L 186.61,185.24 L 186.52,185.61 L 186.42,185.88 L 185.83,187.17 L 185.34,188.00 L 183.89,190.12 L 183.47,190.61 L 183.30,190.76 L 182.99,191.00 L 182.89,191.00 L 182.23,191.73 L 181.76,192.81 L 181.59,193.50 L 180.86,195.27 L 180.25,196.00 L 179.98,196.00 L 179.29,196.44 L 179.00,197.09 L 179.00,197.50 L 178.71,198.56 L 178.28,199.00 L 178.00,199.00 L 177.29,199.32 L 177.00,199.80 L 177.00,200.10 L 176.82,200.69 L 176.53,201.34 L 176.31,201.78 L 175.82,202.73 L 175.51,203.30 L 174.85,204.50 L 174.47,205.17 L 172.82,208.06 L 171.87,209.68 L 169.89,213.01 L 168.87,214.70 L 166.81,218.05 L 166.41,218.69 L 166.48,218.56 L 166.90,217.47 L 167.07,216.96 L 167.15,216.19 L 166.89,215.36 L 166.72,215.16 L 166.55,214.61 L 166.49,214.31 L 166.53,213.54 L 166.58,213.13 L 166.84,212.15 L 167.46,210.43 L 167.89,209.41 L 168.46,207.68 L 168.57,207.31 L 168.68,206.76 L 168.66,206.33 L 168.63,206.30 L 168.50,206.48 L 168.41,206.61 L 168.17,207.07 L 167.91,207.59 L 167.14,209.29 L 166.73,210.23 L 165.75,212.52 L 165.24,213.72 L 164.18,216.30 L 163.65,217.60 L 162.64,220.16 L 162.14,221.41 L 161.30,223.64 L 160.91,224.68 L 160.54,225.74 L 160.64,225.38 L 161.06,224.05 L 161.34,223.27 L 161.94,221.65 L 162.29,220.79 L 163.52,217.71 L 164.49,215.27 L 165.01,213.96 L 166.05,211.32 L 166.55,210.03 L 167.54,207.50 L 167.97,206.38 L 169.50,202.70 L 170.71,200.02 L 171.35,198.67 L 172.65,196.00 L 173.28,194.78 L 174.52,192.45 L 175.06,191.52 L 176.49,189.03 L 177.27,187.61 L 177.58,187.02 L 178.14,185.92 L 178.33,185.48 L 178.67,184.66 L 178.76,184.35 L 178.88,183.80 L 178.87,183.62 L 178.79,183.31 L 178.67,183.24 L 178.39,183.15 L 178.18,183.18 L 177.71,183.28 L 177.41,183.40 L 175.65,184.00 L 174.25,184.42 L 173.66,184.58 L 172.60,185.17 L 171.83,185.86 L 171.43,186.34 L 170.63,187.38 L 170.23,188.01 L 169.45,189.33 L 169.08,190.08 L 168.08,191.99 L 167.43,193.11 L 167.14,193.55 L 166.58,194.36 L 166.36,194.61 L 165.96,195.00 L 165.84,195.00 L 165.57,195.21 L 165.29,195.55 L 165.11,195.81 L 164.27,197.08 L 163.72,198.01 L 162.54,200.04 L 161.87,201.27 L 160.48,203.84 L 159.76,205.25 L 159.44,205.87 L 159.79,204.97 L 159.99,204.42 L 160.25,203.52 L 160.36,203.10 L 160.43,202.49 L 160.44,202.22 L 160.33,201.92 L 160.25,201.81 L 159.94,201.87 L 159.77,201.94 L 159.27,202.38 L 158.31,203.50 L 157.94,203.99 L 157.46,204.60 L 157.26,204.84 L 157.07,204.94 L 157.01,204.92 L 157.08,204.50 L 157.40,203.25 L 157.59,202.52 L 157.90,201.30 L 158.05,200.74 L 158.25,199.85 L 158.34,199.44 L 158.44,198.87 L 158.47,198.63 L 158.46,198.38 L 158.44,198.29 L 158.32,198.35 L 158.24,198.41 L 158.01,198.78 L 157.88,199.00 L 157.53,199.67 L 156.88,201.00 L 156.37,202.08 L 155.45,205.01 L 155.01,206.53 L 154.38,209.62 L 154.27,210.25 L 154.27,210.21 L 154.45,208.73 L 154.60,207.91 L 155.36,204.51 L 155.90,203.00 L 156.72,200.49 L 157.06,199.12 L 157.14,198.59 L 157.23,197.62 L 157.17,197.27 L 157.01,196.67 L 156.83,196.50 L 155.97,196.28 L 157.50,194.49 L 158.25,193.61 L 159.49,192.15 L 160.08,191.46 L 161.06,190.35 L 161.53,189.83 L 162.30,189.01 L 162.67,188.63 L 163.30,188.05 L 163.92,187.52 L 164.97,186.95 L 166.82,186.41 L 168.60,186.02 L 171.85,185.10 L 173.42,184.62 L 176.22,183.53 L 177.55,182.97 L 179.84,181.74 L 182.62,179.76 L 183.57,178.93 L 184.90,177.47 L 185.17,177.15 L 185.48,176.66 L 185.55,176.22 L 185.38,176.05 L 185.69,175.44 L 185.93,175.11 L 186.79,174.39 L 187.26,174.03 L 188.32,173.45 L 189.75,173.03 L 189.93,173.03 M 295.69,215.69 L 293.90,219.71 L 293.37,220.82 L 294.15,219.08 L 296.37,213.72 L 296.57,213.22 M 152.59,200.33 L 150.94,202.06 L 150.00,202.83 L 148.84,203.69 L 149.56,203.13 L 150.04,202.71 L 151.09,201.70 L 151.63,201.16 L 152.85,199.85 L 153.24,199.42 M 302.83,189.51 L 302.67,190.98 L 302.51,192.38 L 302.43,192.97 L 302.25,194.08 L 302.16,194.50 L 301.88,195.55 L 302.55,191.45 L 302.72,190.21 L 302.91,188.29 M 198.40,178.40 L 197.94,179.01 L 197.44,179.28 L 197.08,179.35 L 196.29,179.44 L 195.77,179.43 L 195.20,179.39 L 196.55,179.28 L 197.20,179.15 L 198.14,178.47 L 198.52,178.09 Z" fill="rgba(75,75,75,1)"/>
<path d="M 200.78,47.72 L 202.71,47.75 L 206.20,47.90 L 207.89,47.98 L 211.00,48.23 L 212.52,48.38 L 215.40,48.76 L 218.26,49.19 L 223.93,50.54 L 225.40,50.93 L 228.51,51.86 L 233.61,53.50 L 236.72,54.55 L 242.78,57.02 L 245.78,58.31 L 251.60,61.26 L 254.47,62.79 L 260.01,66.18 L 262.74,67.93 L 267.99,71.73 L 270.57,73.69 L 275.51,77.89 L 277.93,80.03 L 282.53,84.59 L 284.79,86.91 L 289.04,91.80 L 291.12,94.28 L 294.99,99.48 L 296.88,102.11 L 300.36,107.58 L 302.05,110.35 L 305.11,116.06 L 306.59,118.95 L 309.22,124.88 L 310.48,127.87 L 312.65,133.99 L 313.68,137.07 L 315.37,143.35 L 316.16,146.51 L 317.36,152.93 L 317.90,156.15 L 318.58,162.67 L 318.99,172.53 L 319.00,176.33 L 318.53,183.82 L 318.21,187.54 L 317.13,194.85 L 316.51,198.47 L 314.84,205.57 L 313.93,209.08 L 311.68,215.93 L 310.49,219.33 L 307.70,225.91 L 306.23,229.16 L 302.92,235.44 L 301.19,238.55 L 297.38,244.50 L 295.41,247.44 L 291.11,253.04 L 288.90,255.80 L 284.15,261.02 L 281.72,263.58 L 276.53,268.40 L 273.88,270.75 L 268.28,275.12 L 265.43,277.25 L 259.44,281.16 L 256.40,283.06 L 250.04,286.47 L 246.82,288.12 L 240.12,291.01 L 236.73,292.39 L 229.71,294.73 L 218.84,297.59 L 217.75,297.83 L 214.92,298.25 L 213.41,298.45 L 209.92,298.79 L 208.11,298.95 L 204.19,299.21 L 202.21,299.32 L 198.11,299.48 L 196.07,299.55 L 192.04,299.61 L 190.06,299.62 L 186.34,299.57 L 184.55,299.52 L 181.38,299.35 L 179.89,299.25 L 177.52,298.95 L 173.99,298.40 L 167.08,296.88 L 163.66,296.06 L 157.00,294.02 L 153.70,292.93 L 147.30,290.39 L 144.13,289.06 L 138.02,286.03 L 135.00,284.46 L 129.19,280.98 L 126.32,279.18 L 120.84,275.26 L 118.14,273.25 L 113.01,268.92 L 110.49,266.70 L 105.73,261.98 L 103.39,259.57 L 99.02,254.48 L 96.89,251.89 L 92.93,246.45 L 91.01,243.69 L 87.48,237.92 L 85.78,235.00 L 82.71,228.93 L 81.24,225.86 L 78.65,219.52 L 77.42,216.31 L 75.33,209.70 L 74.36,206.37 L 72.79,199.53 L 71.05,189.03 L 70.59,185.32 L 70.17,177.95 L 70.04,174.27 L 70.27,166.97 L 70.46,163.33 L 71.31,156.13 L 71.81,152.55 L 73.27,145.50 L 74.06,142.00 L 76.09,135.13 L 77.18,131.72 L 79.77,125.06 L 81.13,121.77 L 84.25,115.37 L 85.87,112.20 L 89.50,106.09 L 91.38,103.07 L 95.50,97.29 L 97.62,94.44 L 102.20,89.01 L 104.55,86.35 L 109.58,81.32 L 112.15,78.86 L 117.60,74.27 L 120.37,72.03 L 126.22,67.90 L 129.20,65.90 L 135.42,62.28 L 138.58,60.54 L 145.15,57.47 L 155.39,53.50 L 157.20,52.90 L 160.49,51.86 L 162.09,51.37 L 165.07,50.54 L 168.00,49.77 L 173.60,48.76 L 175.02,48.55 L 178.00,48.23 L 179.52,48.09 L 182.80,47.90 L 184.49,47.81 L 188.22,47.72 L 194.50,47.67 L 196.76,47.67 M 189.21,62.19 L 182.79,62.76 L 179.59,63.11 L 173.29,64.26 L 170.15,64.90 L 164.00,66.59 L 160.94,67.51 L 154.97,69.73 L 152.01,70.91 L 146.27,73.65 L 143.42,75.08 L 137.93,78.31 L 135.22,79.98 L 130.01,83.68 L 127.45,85.58 L 122.57,89.73 L 120.17,91.85 L 115.65,96.42 L 113.43,98.76 L 109.30,103.74 L 107.29,106.27 L 103.58,111.63 L 101.79,114.36 L 98.54,120.08 L 96.98,122.98 L 94.23,129.04 L 90.70,138.50 L 90.17,140.16 L 89.25,143.17 L 88.82,144.64 L 88.09,147.36 L 87.41,150.03 L 86.52,155.07 L 86.33,156.35 L 86.05,159.00 L 85.93,160.35 L 85.75,163.25 L 85.68,164.74 L 85.60,168.01 L 85.55,173.50 L 85.55,176.00 L 85.70,180.74 L 85.80,183.07 L 86.18,187.50 L 86.39,189.69 L 87.00,193.90 L 87.33,195.99 L 88.19,200.05 L 88.65,202.07 L 89.77,206.05 L 90.37,208.04 L 91.78,212.02 L 92.53,214.01 L 94.24,218.06 L 97.17,224.29 L 97.67,225.28 L 98.58,226.98 L 99.03,227.79 L 99.87,229.15 L 100.29,229.80 L 101.10,230.85 L 101.51,231.34 L 102.34,232.12 L 103.17,232.84 L 105.05,233.60 L 106.41,233.76 L 105.97,233.74 L 105.19,233.82 L 104.91,233.92 L 104.40,234.17 L 104.24,234.36 L 104.00,234.77 L 103.98,235.03 L 104.01,235.60 L 104.13,235.94 L 104.43,236.66 L 104.68,237.07 L 105.25,237.94 L 105.64,238.43 L 106.48,239.44 L 107.00,240.00 L 109.12,242.41 L 109.61,243.03 L 109.76,243.25 L 110.00,243.62 L 110.00,243.69 L 110.29,244.22 L 110.74,244.89 L 111.07,245.34 L 111.80,246.30 L 112.24,246.86 L 113.16,248.01 L 113.66,248.63 L 115.30,250.47 L 116.30,251.43 L 116.73,251.76 L 117.57,252.34 L 117.91,252.47 L 118.54,252.62 L 118.77,252.53 L 119.72,252.47 L 119.86,252.92 L 119.69,253.37 L 119.84,254.09 L 120.27,254.77 L 120.63,255.21 L 121.44,256.13 L 121.98,256.67 L 123.13,257.79 L 123.82,258.40 L 125.27,259.68 L 126.08,260.35 L 127.78,261.74 L 128.70,262.45 L 132.57,265.38 L 134.69,266.85 L 137.88,269.05 L 144.32,263.02 L 148.58,258.73 L 146.13,261.35 L 145.43,262.09 L 144.22,263.40 L 143.64,264.02 L 142.67,265.12 L 142.21,265.64 L 141.47,266.53 L 141.13,266.96 L 140.60,267.68 L 140.13,268.35 L 139.79,269.25 L 140.06,270.04 L 140.47,270.29 L 141.46,270.32 L 142.90,269.69 L 143.20,269.45 L 143.62,269.16 L 143.79,269.06 L 143.97,269.05 L 144.03,269.09 L 144.00,269.38 L 143.75,270.17 L 143.58,270.63 L 143.66,271.50 L 144.31,272.35 L 144.48,272.42 L 145.40,272.83 L 145.95,273.07 L 147.49,273.75 L 148.32,274.11 L 150.27,274.98 L 153.45,276.39 L 154.57,276.88 L 156.42,277.67 L 157.29,278.03 L 158.72,278.55 L 159.40,278.77 L 160.50,278.99 L 161.02,279.07 L 161.89,278.98 L 162.30,278.89 L 163.01,278.48 L 163.35,278.23 L 164.00,277.46 L 164.32,277.03 L 164.60,276.56 L 164.60,276.56 L 164.11,277.72 L 163.94,278.21 L 163.67,279.13 L 163.64,279.46 L 163.63,280.03 L 163.74,280.14 L 164.92,280.80 L 166.20,281.25 L 167.02,281.48 L 168.78,281.92 L 169.78,282.12 L 171.85,282.52 L 172.95,282.69 L 177.45,283.32 L 179.53,283.47 L 181.55,283.59 L 182.43,283.60 L 184.10,283.57 L 184.75,283.49 L 187.03,283.28 L 188.23,283.25 L 188.67,283.29 L 189.44,283.40 L 189.67,283.50 L 190.00,283.75 L 190.00,283.93 L 190.18,284.29 L 190.50,284.43 L 191.31,284.69 L 191.91,284.77 L 193.26,284.91 L 194.10,284.95 L 195.88,284.98 L 196.91,284.96 L 199.04,284.89 L 200.21,284.82 L 202.59,284.64 L 203.85,284.52 L 209.02,283.92 L 211.62,283.47 L 221.01,281.44 L 227.15,279.74 L 229.88,278.81 L 232.54,277.87 L 233.73,277.40 L 236.01,276.46 L 236.98,276.00 L 238.78,275.09 L 239.47,274.66 L 240.70,273.82 L 241.06,273.44 L 243.12,271.83 L 243.78,271.52 L 244.06,271.46 L 244.59,271.40 L 244.78,271.47 L 245.89,271.30 L 247.07,270.83 L 247.82,270.47 L 249.41,269.65 L 250.29,269.15 L 252.08,268.11 L 252.98,267.55 L 254.77,266.41 L 255.60,265.85 L 257.19,264.73 L 257.84,264.22 L 259.03,263.26 L 259.41,262.87 L 260.00,262.18 L 260.00,261.98 L 259.54,260.53 L 258.85,259.18 L 258.42,258.52 L 258.28,258.27 L 258.67,258.82 L 259.16,259.44 L 260.17,260.37 L 261.47,261.00 L 261.75,261.00 L 262.70,260.53 L 263.23,260.22 L 264.58,259.21 L 265.30,258.64 L 266.96,257.19 L 267.82,256.41 L 269.69,254.61 L 271.59,252.75 L 275.59,248.40 L 281.08,241.73 L 282.31,240.11 L 284.64,236.68 L 285.79,234.94 L 287.98,231.30 L 290.12,227.61 L 293.90,219.71 L 295.69,215.69 L 298.68,207.32 L 302.16,194.50 L 302.25,194.08 L 302.43,192.97 L 302.51,192.38 L 302.67,190.98 L 302.83,189.51 L 303.08,185.91 L 303.19,184.02 L 303.35,179.88 L 303.45,173.50 L 303.45,171.53 L 303.40,168.01 L 303.37,166.31 L 303.25,163.25 L 303.17,161.75 L 302.95,159.00 L 302.82,157.65 L 302.48,155.07 L 302.10,152.51 L 300.91,147.36 L 300.56,146.02 L 299.75,143.17 L 298.30,138.50 L 297.51,136.06 L 295.69,131.29 L 294.75,128.93 L 292.63,124.34 L 291.53,122.06 L 289.12,117.66 L 287.88,115.48 L 285.19,111.27 L 283.81,109.19 L 280.85,105.19 L 279.34,103.22 L 276.13,99.44 L 274.49,97.58 L 271.04,94.03 L 269.28,92.28 L 265.60,88.98 L 263.74,87.36 L 259.84,84.31 L 257.87,82.81 L 253.78,80.03 L 251.71,78.67 L 247.43,76.16 L 245.27,74.94 L 240.81,72.73 L 238.56,71.65 L 233.95,69.74 L 231.62,68.81 L 226.86,67.21 L 224.46,66.44 L 219.56,65.16 L 212.07,63.61 L 208.79,63.05 L 202.24,62.40 L 198.96,62.16 L 192.46,62.13 M 167.43,270.58 L 167.42,270.62 L 167.43,270.56 M 167.56,269.55 L 167.54,269.87 L 167.52,269.96 L 167.54,269.64 L 167.52,269.47 M 164.45,269.43 L 164.49,269.41 L 164.82,269.27 M 167.27,268.95 L 167.39,269.13 L 167.44,269.26 L 167.30,269.03 L 167.19,268.92 M 165.73,268.94 L 165.39,269.04 L 165.48,269.00 L 165.87,268.90 L 166.16,268.85 M 166.84,268.80 L 167.02,268.86 L 166.70,268.80 L 166.48,268.79 L 166.58,268.77 M 158.69,245.25 L 158.65,245.59 L 158.37,246.40 L 158.20,246.83 L 157.62,247.86 L 157.29,248.40 L 156.40,249.67 L 155.91,250.34 L 154.81,251.70 L 154.98,251.48 L 156.20,249.83 L 156.70,249.09 L 157.60,247.67 L 157.91,247.06 L 158.45,245.91 L 158.56,245.46 L 158.69,244.68 M 158.60,243.58 L 158.61,243.34 L 158.61,243.34 M 160.12,240.68 L 159.31,241.88 L 158.96,242.44 L 158.70,243.11 L 158.96,242.44 L 159.31,241.88 L 160.12,240.69 L 160.70,239.97 L 161.99,238.47 L 161.99,238.47 L 160.71,239.97 M 108.91,234.00 L 109.59,234.12 L 109.90,234.21 L 110.38,234.52 L 110.60,234.69 L 110.90,235.20 L 111.18,236.20 L 111.23,236.57 L 111.46,236.61 L 111.24,236.64 L 111.19,236.31 L 110.87,235.30 L 110.49,234.78 L 110.20,234.58 L 109.54,234.23 L 109.08,234.10 L 108.63,234.00 M 243.00,227.64 L 242.56,228.81 L 241.91,229.48 L 242.56,228.78 L 243.00,227.53 M 247.01,222.43 L 246.45,223.20 L 246.27,223.50 L 246.00,224.02 L 246.00,224.16 L 245.56,224.97 L 245.07,225.36 L 245.63,224.52 L 245.72,224.29 L 246.12,223.63 L 246.36,223.27 L 247.00,222.42 L 247.61,221.62 M 247.62,221.61 L 247.67,221.54 L 248.58,220.49 M 250.22,218.65 L 250.24,218.63 L 250.72,218.16 M 252.17,216.76 L 252.18,216.75 L 252.35,216.61 M 252.75,216.29 L 253.32,216.00 L 252.74,216.30 M 251.93,245.06 L 252.11,245.00 L 251.77,245.17 M 243.30,226.45 L 244.03,226.00 L 244.04,226.00 L 243.44,226.46 L 243.00,227.25 L 243.00,227.11 Z" fill="rgba(179,179,179,1)"/>
<path d="M 190.00,283.93 L 190.00,283.75 L 189.67,283.50 L 189.44,283.40 L 188.67,283.29 L 188.23,283.25 L 187.03,283.28 L 184.75,283.49 L 184.10,283.57 L 182.43,283.60 L 181.55,283.59 L 179.53,283.47 L 177.45,283.32 L 172.95,282.69 L 171.85,282.52 L 169.78,282.12 L 168.78,281.92 L 167.02,281.48 L 166.20,281.25 L 164.92,280.80 L 163.74,280.14 L 163.63,280.03 L 163.64,279.46 L 163.67,279.13 L 163.94,278.21 L 164.11,277.72 L 164.60,276.56 L 165.55,274.70 L 165.97,273.94 L 166.61,272.65 L 166.90,272.05 L 167.28,271.05 L 167.43,270.58 L 167.54,269.87 L 167.56,269.55 L 167.39,269.13 L 167.27,268.95 L 166.84,268.80 L 166.58,268.77 L 165.87,268.90 L 165.48,269.00 L 164.49,269.41 L 162.69,270.33 L 161.63,270.92 L 159.87,271.74 L 159.05,272.10 L 157.78,272.45 L 157.21,272.57 L 156.45,272.44 L 155.92,271.71 L 155.91,271.65 L 156.07,271.22 L 156.17,270.96 L 156.53,270.14 L 156.73,269.69 L 157.27,268.54 L 157.55,267.92 L 158.25,266.47 L 158.97,264.95 L 160.81,261.23 L 163.95,254.98 L 165.56,251.82 L 168.38,246.14 L 169.73,243.40 L 172.03,238.54 L 173.12,236.22 L 174.92,232.18 L 175.76,230.26 L 177.05,227.02 L 177.63,225.50 L 178.43,223.04 L 178.76,221.91 L 179.07,220.23 L 179.16,219.48 L 178.97,218.55 L 178.15,218.00 L 178.03,218.00 L 177.44,218.57 L 177.09,218.94 L 176.13,220.12 L 175.62,220.78 L 174.42,222.42 L 172.49,225.23 L 171.82,226.22 L 170.24,228.44 L 169.41,229.57 L 167.66,231.85 L 166.79,232.97 L 165.09,235.03 L 162.82,237.60 L 161.99,238.47 L 160.70,239.97 L 160.12,240.69 L 159.31,241.88 L 158.96,242.44 L 158.61,243.34 L 158.59,244.38 L 158.69,244.64 L 158.56,245.46 L 158.45,245.91 L 157.91,247.06 L 157.60,247.67 L 156.70,249.09 L 156.20,249.83 L 154.98,251.48 L 154.33,252.33 L 152.82,254.15 L 152.03,255.08 L 150.28,257.02 L 144.32,263.02 L 137.88,269.05 L 134.69,266.85 L 132.57,265.38 L 128.70,262.45 L 127.78,261.74 L 126.08,260.35 L 125.27,259.68 L 123.82,258.40 L 123.13,257.79 L 121.98,256.67 L 121.44,256.13 L 120.63,255.21 L 120.27,254.77 L 119.84,254.09 L 119.69,253.37 L 119.86,252.92 L 119.72,252.47 L 118.77,252.53 L 118.54,252.62 L 117.91,252.47 L 117.57,252.34 L 116.73,251.76 L 116.30,251.43 L 115.30,250.47 L 113.66,248.63 L 113.16,248.01 L 112.24,246.86 L 111.80,246.30 L 111.07,245.34 L 110.74,244.89 L 110.29,244.22 L 110.00,243.69 L 110.00,243.62 L 109.76,243.25 L 109.61,243.03 L 109.12,242.41 L 107.00,240.00 L 106.48,239.44 L 105.64,238.43 L 105.25,237.94 L 104.68,237.07 L 104.43,236.66 L 104.13,235.94 L 104.01,235.60 L 103.98,235.03 L 104.00,234.77 L 104.24,234.36 L 104.40,234.17 L 104.91,233.92 L 105.19,233.82 L 105.97,233.74 L 107.44,233.80 L 108.09,233.88 L 109.08,234.10 L 109.54,234.23 L 110.20,234.58 L 110.49,234.78 L 110.87,235.30 L 111.19,236.31 L 111.24,236.64 L 111.55,236.60 L 111.74,236.47 L 112.32,235.54 L 112.64,234.96 L 113.45,233.19 L 114.91,229.62 L 115.32,228.55 L 116.11,226.60 L 116.49,225.66 L 117.21,223.99 L 117.56,223.19 L 118.21,221.79 L 118.53,221.13 L 119.11,220.01 L 119.40,219.48 L 119.92,218.64 L 120.18,218.26 L 120.64,217.69 L 120.86,217.44 L 121.27,217.16 L 121.46,217.05 L 121.81,217.04 L 121.97,217.07 L 122.26,217.33 L 122.40,217.50 L 122.63,218.05 L 122.74,218.35 L 122.91,219.18 L 123.00,219.62 L 123.12,220.73 L 123.18,221.31 L 123.25,222.69 L 123.28,223.42 L 123.31,225.08 L 123.31,225.94 L 123.29,227.88 L 123.20,231.10 L 123.16,232.32 L 123.09,234.45 L 123.07,235.46 L 123.04,237.22 L 123.03,238.05 L 123.03,239.45 L 123.04,240.11 L 123.09,241.18 L 123.11,241.67 L 123.19,242.42 L 123.24,242.76 L 123.36,243.22 L 123.42,243.41 L 123.58,243.60 L 123.86,243.59 L 124.17,243.39 L 124.67,242.70 L 125.00,241.55 L 125.00,241.18 L 125.44,240.44 L 126.50,239.64 L 126.91,239.48 L 127.56,238.78 L 128.00,237.52 L 128.00,237.09 L 128.28,235.92 L 128.96,234.24 L 129.03,234.12 L 129.26,233.66 L 129.39,233.41 L 129.74,232.70 L 130.11,231.94 L 131.13,229.80 L 131.68,228.65 L 132.94,225.95 L 134.98,221.57 L 135.45,220.56 L 136.25,218.77 L 136.64,217.91 L 137.28,216.42 L 137.58,215.70 L 138.07,214.47 L 138.29,213.89 L 138.63,212.91 L 138.93,211.98 L 139.11,210.80 L 138.79,209.87 L 138.40,209.63 L 138.02,209.25 L 137.91,209.07 L 138.29,208.66 L 138.45,208.55 L 138.94,208.30 L 139.22,208.16 L 139.99,207.84 L 140.42,207.66 L 141.50,207.25 L 143.50,206.50 L 144.71,206.05 L 146.95,204.90 L 148.04,204.29 L 150.00,202.83 L 150.94,202.06 L 152.59,200.33 L 154.65,197.46 L 155.03,196.80 L 155.77,196.23 L 156.83,196.50 L 157.01,196.67 L 157.17,197.27 L 157.23,197.62 L 157.14,198.59 L 157.06,199.12 L 156.72,200.49 L 155.90,203.00 L 155.36,204.51 L 154.60,207.91 L 154.45,208.73 L 154.27,210.21 L 154.22,212.00 L 154.26,212.42 L 154.33,213.06 L 154.38,213.35 L 154.50,213.71 L 154.57,213.85 L 154.78,213.89 L 154.90,213.86 L 155.22,213.52 L 155.41,213.30 L 155.89,212.53 L 156.15,212.10 L 156.83,210.87 L 157.20,210.20 L 158.10,208.47 L 159.76,205.25 L 160.48,203.84 L 161.87,201.27 L 162.54,200.04 L 163.72,198.01 L 164.27,197.08 L 165.11,195.81 L 165.29,195.55 L 165.57,195.21 L 165.84,195.00 L 165.96,195.00 L 166.36,194.61 L 166.58,194.36 L 167.14,193.55 L 167.43,193.11 L 168.08,191.99 L 169.08,190.08 L 169.45,189.33 L 170.23,188.01 L 170.63,187.38 L 171.43,186.34 L 171.83,185.86 L 172.60,185.17 L 173.66,184.58 L 174.25,184.42 L 175.65,184.00 L 177.41,183.40 L 177.71,183.28 L 178.18,183.18 L 178.39,183.15 L 178.67,183.24 L 178.79,183.31 L 178.87,183.62 L 178.88,183.80 L 178.76,184.35 L 178.67,184.66 L 178.33,185.48 L 178.14,185.92 L 177.58,187.02 L 177.27,187.61 L 176.49,189.03 L 175.06,191.52 L 174.52,192.45 L 173.28,194.78 L 172.65,196.00 L 171.35,198.67 L 170.71,200.02 L 169.50,202.70 L 167.97,206.38 L 167.54,207.50 L 166.55,210.03 L 166.05,211.32 L 165.01,213.96 L 164.49,215.27 L 163.52,217.71 L 162.29,220.79 L 161.94,221.65 L 161.34,223.27 L 161.06,224.05 L 160.64,225.38 L 160.46,226.00 L 160.27,226.90 L 160.27,227.60 L 160.31,227.64 L 160.56,227.41 L 160.71,227.25 L 161.17,226.67 L 161.42,226.33 L 162.04,225.43 L 162.38,224.95 L 163.14,223.80 L 163.94,222.59 L 165.83,219.60 L 166.81,218.05 L 168.87,214.70 L 169.89,213.01 L 171.87,209.68 L 172.82,208.06 L 174.47,205.17 L 174.85,204.50 L 175.51,203.30 L 175.82,202.73 L 176.31,201.78 L 176.53,201.34 L 176.82,200.69 L 177.00,200.10 L 177.00,199.80 L 177.29,199.32 L 178.00,199.00 L 178.28,199.00 L 178.71,198.56 L 179.00,197.50 L 179.00,197.09 L 179.29,196.44 L 179.98,196.00 L 180.25,196.00 L 180.86,195.27 L 181.59,193.50 L 181.76,192.81 L 182.23,191.73 L 182.89,191.00 L 182.99,191.00 L 183.30,190.76 L 183.47,190.61 L 183.89,190.12 L 185.34,188.00 L 185.83,187.17 L 186.42,185.88 L 186.52,185.61 L 186.61,185.24 L 186.52,185.00 L 186.44,185.00 L 186.45,184.83 L 186.48,184.72 L 186.70,184.36 L 187.96,182.81 L 188.52,182.21 L 189.40,180.99 L 189.59,180.70 L 189.84,180.22 L 190.00,179.68 L 190.00,179.55 L 190.31,179.35 L 190.51,179.27 L 191.15,179.17 L 193.93,179.26 L 194.64,179.36 L 195.77,179.43 L 196.29,179.44 L 197.08,179.35 L 197.44,179.28 L 197.94,179.01 L 198.40,178.40 L 198.55,178.01 L 199.16,177.41 L 200.22,177.00 L 200.39,177.00 L 200.94,176.64 L 201.24,176.41 L 201.96,175.68 L 204.34,172.50 L 205.12,171.26 L 206.58,169.32 L 206.91,168.91 L 207.43,168.35 L 207.96,168.00 L 208.15,168.00 L 208.47,168.32 L 208.62,168.53 L 208.87,169.23 L 208.98,169.64 L 209.16,170.70 L 209.24,171.28 L 209.35,172.67 L 209.39,173.40 L 209.42,175.09 L 209.43,175.96 L 209.38,177.91 L 208.95,184.54 L 208.85,185.55 L 208.70,187.29 L 208.63,188.11 L 208.54,189.51 L 208.50,190.18 L 208.46,191.29 L 208.45,191.81 L 208.48,192.67 L 208.52,193.48 L 208.80,194.54 L 209.53,195.68 L 209.87,196.01 L 210.24,196.63 L 210.37,196.96 L 210.29,197.79 L 210.18,198.25 L 209.59,199.55 L 208.05,202.34 L 207.65,203.03 L 206.75,204.68 L 206.28,205.56 L 205.25,207.54 L 204.20,209.59 L 201.84,214.40 L 200.64,216.89 L 198.14,222.22 L 196.89,224.90 L 194.45,230.28 L 193.27,232.92 L 191.12,237.87 L 190.61,239.05 L 189.68,241.26 L 189.23,242.33 L 188.44,244.27 L 188.07,245.20 L 187.45,246.81 L 187.17,247.57 L 186.75,248.79 L 186.57,249.34 L 186.37,250.11 L 186.36,250.69 L 186.44,250.78 L 186.74,250.64 L 186.92,250.52 L 187.39,249.99 L 187.66,249.67 L 188.31,248.74 L 188.65,248.23 L 189.47,246.92 L 189.90,246.22 L 190.89,244.53 L 191.40,243.64 L 192.55,241.57 L 193.14,240.50 L 194.44,238.07 L 196.57,234.02 L 197.25,232.72 L 198.58,230.23 L 199.24,229.03 L 200.42,226.93 L 200.98,225.95 L 201.88,224.47 L 202.08,224.15 L 202.40,223.66 L 202.75,223.20 L 203.09,222.83 L 203.63,221.83 L 204.00,220.43 L 204.00,220.04 L 204.25,219.42 L 204.84,219.00 L 204.95,219.00 L 205.26,218.78 L 205.42,218.64 L 205.79,218.19 L 206.17,217.70 L 206.96,216.33 L 207.33,215.62 L 207.90,214.23 L 208.17,212.75 L 208.13,212.54 L 208.32,212.22 L 208.92,212.00 L 209.05,212.00 L 209.37,211.72 L 209.54,211.55 L 209.91,210.97 L 211.00,208.50 L 211.32,207.54 L 212.02,206.03 L 212.19,205.71 L 212.50,205.28 L 212.86,205.00 L 213.00,205.00 L 213.36,204.76 L 213.54,204.60 L 213.97,204.11 L 214.40,203.57 L 215.27,202.09 L 215.67,201.34 L 216.23,199.94 L 216.33,199.62 L 216.41,199.12 L 216.31,198.64 L 216.13,198.46 L 216.18,198.19 L 216.77,198.00 L 217.07,198.00 L 217.73,197.41 L 218.50,196.00 L 218.74,195.25 L 219.29,194.42 L 219.58,194.12 L 220.26,194.21 L 220.62,194.38 L 221.48,195.41 L 223.02,198.03 L 225.07,202.06 L 221.04,211.16 L 220.48,212.41 L 219.47,214.76 L 218.99,215.89 L 218.19,217.84 L 217.82,218.74 L 217.32,220.07 L 217.00,221.13 L 217.00,221.61 L 217.50,221.97 L 217.83,222.05 L 218.99,221.58 L 219.32,221.41 L 220.11,220.92 L 220.53,220.65 L 221.49,219.95 L 221.99,219.58 L 223.12,218.67 L 225.00,217.08 L 226.75,215.56 L 229.97,213.07 L 231.53,211.91 L 234.28,210.20 L 234.94,209.82 L 236.13,209.22 L 236.71,208.95 L 237.75,208.58 L 238.24,208.42 L 239.10,208.28 L 240.16,208.33 L 240.67,208.46 L 241.62,208.40 L 242.56,207.91 L 242.71,207.66 L 243.25,207.27 L 244.13,207.00 L 244.45,207.00 L 244.66,207.65 L 244.70,208.06 L 244.42,209.26 L 244.23,209.89 L 243.58,211.28 L 242.28,213.19 L 241.88,213.65 L 241.44,214.70 L 241.47,215.96 L 241.56,216.10 L 241.58,216.63 L 241.56,216.92 L 241.37,217.67 L 240.19,220.27 L 239.92,220.71 L 239.11,222.16 L 238.67,222.95 L 237.61,224.90 L 234.15,231.51 L 233.03,233.71 L 230.52,238.18 L 229.92,239.21 L 228.84,240.99 L 227.53,242.95 L 226.87,243.85 L 225.95,245.25 L 225.56,245.89 L 225.16,246.82 L 225.03,247.23 L 225.13,247.71 L 225.85,248.00 L 225.99,248.00 L 226.44,247.80 L 226.68,247.67 L 227.29,247.25 L 227.92,246.80 L 229.35,245.53 L 230.05,244.89 L 231.20,243.62 L 231.44,243.33 L 231.78,242.83 L 232.00,242.29 L 232.00,242.18 L 232.18,241.78 L 232.30,241.55 L 232.68,240.99 L 234.30,238.99 L 234.93,238.31 L 236.12,236.72 L 237.27,234.75 L 237.45,234.27 L 238.04,233.51 L 238.97,233.00 L 239.25,233.00 L 239.70,232.59 L 240.00,231.61 L 240.00,231.22 L 240.44,230.45 L 241.50,229.64 L 241.91,229.48 L 242.56,228.81 L 243.00,227.64 L 243.00,227.25 L 243.44,226.46 L 244.50,225.64 L 244.91,225.48 L 245.56,224.97 L 246.00,224.16 L 246.00,224.02 L 246.27,223.50 L 246.45,223.20 L 247.01,222.43 L 247.62,221.61 L 249.30,219.67 L 250.15,218.72 L 251.77,217.12 L 252.13,216.78 L 252.73,216.31 L 253.32,216.00 L 253.48,216.00 L 253.71,216.55 L 253.81,216.91 L 253.94,218.05 L 253.99,218.68 L 254.02,220.25 L 254.02,221.08 L 253.95,222.93 L 253.87,224.82 L 253.45,228.75 L 253.33,229.69 L 253.04,231.42 L 252.52,233.62 L 252.32,234.30 L 251.58,236.02 L 251.17,236.92 L 250.11,238.88 L 249.55,239.87 L 248.31,241.84 L 246.38,244.55 L 245.00,246.30 L 242.43,249.79 L 241.20,251.50 L 239.12,254.58 L 238.65,255.30 L 237.83,256.61 L 237.45,257.24 L 236.85,258.30 L 236.58,258.80 L 236.22,259.58 L 236.00,260.36 L 236.00,260.43 L 236.15,260.39 L 236.26,260.34 L 236.60,260.09 L 236.98,259.80 L 238.23,258.65 L 238.92,258.00 L 240.64,256.26 L 243.59,253.17 L 244.63,252.04 L 246.61,250.00 L 247.56,249.02 L 249.22,247.40 L 249.99,246.66 L 251.15,245.64 L 251.39,245.44 L 251.77,245.17 L 252.11,245.00 L 252.37,245.00 L 253.03,245.66 L 253.94,247.25 L 254.32,248.21 L 254.96,249.85 L 255.25,250.63 L 255.72,251.95 L 255.94,252.57 L 256.26,253.59 L 256.57,254.80 L 256.64,255.16 L 257.22,256.43 L 258.42,258.52 L 258.85,259.18 L 259.54,260.53 L 260.00,261.98 L 260.00,262.18 L 259.41,262.87 L 259.03,263.26 L 257.84,264.22 L 257.19,264.73 L 255.60,265.85 L 254.77,266.41 L 252.98,267.55 L 252.08,268.11 L 250.29,269.15 L 249.41,269.65 L 247.82,270.47 L 247.07,270.83 L 245.89,271.30 L 244.78,271.47 L 244.59,271.40 L 244.06,271.46 L 243.78,271.52 L 243.12,271.83 L 241.06,273.44 L 240.70,273.82 L 239.47,274.66 L 238.78,275.09 L 236.98,276.00 L 236.01,276.46 L 233.73,277.40 L 232.54,277.87 L 229.88,278.81 L 227.15,279.74 L 221.01,281.44 L 211.62,283.47 L 209.02,283.92 L 203.85,284.52 L 202.59,284.64 L 200.21,284.82 L 199.04,284.89 L 196.91,284.96 L 195.88,284.98 L 194.10,284.95 L 193.26,284.91 L 191.91,284.77 L 191.31,284.69 L 190.50,284.43 L 190.18,284.29 Z" fill="rgba(240,240,240,1)"/>
</g>
</svg>