<svg id="Слой_1" data-name="Слой 1" xmlns="http://www.w3.org/2000/svg" viewBox="0 0 178.72 237.16">
  <defs>
    <style>
      .cls-1 {
        fill: #1d1d1b;
      }
    </style>
  </defs>
  <g>
    <g>
      <rect x="84.84" y="55.03" width="9.03" height="6.06" rx="0.71"/>
      <rect x="85.39" y="95.03" width="7.94" height="22.58" rx="0.71"/>
      <path d="M119.75,156.42c-.58-.31-2.19-.94-2.19-.94v-2.19l1.69-.23a1.55,1.55,0,0,0,1.33-1.71c-.55-4.86-1.63-10.83-1.61-17.61,0-7.24,1.77-12.62,1.54-17.71-.11-2.4-1.37-5.85-3-8.83a42.8,42.8,0,0,0-3.52-5.46,5.73,5.73,0,0,1-1.16-3.44V90.06a.71.71,0,0,0-.71-.71h-7.61a.71.71,0,0,0-.71.71V98.3a5.74,5.74,0,0,1-1.17,3.44,43.93,43.93,0,0,0-3.51,5.46c-1.62,3-2.88,6.43-3,8.83-.24,5.09,1.51,10.47,1.54,17.71,0,6.78-1.07,12.75-1.61,17.61a1.54,1.54,0,0,0,1.32,1.71l1.69.23v2.19s-1.62.63-2.19.94c-1.51.81-1.38,2.61-.13,2.61h23.1C121.13,159,121.26,157.23,119.75,156.42Zm-5.52-10a.71.71,0,0,1-.71.71H103.13a.71.71,0,0,1-.71-.71V119.68a.71.71,0,0,1,.71-.71h10.39a.71.71,0,0,1,.71.71Z" transform="translate(-18.96 -26.71)"/>
    </g>
    <path d="M189.35,259.05H27.29a1.5,1.5,0,0,1-1.5-1.5V33a1.5,1.5,0,0,1,1.5-1.5H189.35a1.5,1.5,0,0,1,1.5,1.5V257.55A1.5,1.5,0,0,1,189.35,259.05Zm-160.56-3H187.85V34.53H28.79Z" transform="translate(-18.96 -26.71)"/>
    <path d="M34.43,263.87a1.5,1.5,0,0,1-1.5-1.41L19,38.38a1.49,1.49,0,0,1,.37-1.08,1.51,1.51,0,0,1,1-.51L182.12,26.71a1.49,1.49,0,0,1,1.59,1.41l14,224.08a1.53,1.53,0,0,1-.37,1.08,1.55,1.55,0,0,1-1,.51L34.52,263.87ZM22.06,39.69,35.83,260.78l158.76-9.89L180.81,29.8Z" transform="translate(-18.96 -26.71)"/>
    <g>
      <path class="cls-1" d="M45.6,223.23V207.56h2.24v15.67Zm2-3.78-.11-2.73,8.89-9.16H58.9L52,214.82l-1.26,1.39Zm9.14,3.78-6.43-7.47,1.5-1.66,7.55,9.13Z" transform="translate(-18.96 -26.71)"/>
      <path class="cls-1" d="M58.7,223.23l7.1-15.67H68l7.12,15.67H72.78l-6.33-14.41h.89L61,223.23Zm3-3.91.61-1.79h8.82l.65,1.79Z" transform="translate(-18.96 -26.71)"/>
      <path class="cls-1" d="M77.46,223.23V207.56H79.7v13.73h8.48v1.94Z" transform="translate(-18.96 -26.71)"/>
      <path class="cls-1" d="M88.39,223.23l7.09-15.67H97.7l7.12,15.67h-2.35l-6.34-14.41H97l-6.34,14.41Zm3-3.91.6-1.79h8.82l.65,1.79Z" transform="translate(-18.96 -26.71)"/>
      <path class="cls-1" d="M111.71,223.41a10.83,10.83,0,0,1-3.42-.54,7,7,0,0,1-2.58-1.43l.83-1.74a7.47,7.47,0,0,0,2.29,1.3,8.24,8.24,0,0,0,2.88.51,6.55,6.55,0,0,0,2.22-.31,2.65,2.65,0,0,0,1.25-.86,2.06,2.06,0,0,0,.41-1.25,1.72,1.72,0,0,0-.53-1.3,4.06,4.06,0,0,0-1.36-.79,16.32,16.32,0,0,0-1.85-.53c-.67-.15-1.35-.32-2-.52a9.18,9.18,0,0,1-1.86-.77,3.83,3.83,0,0,1-1.35-1.27,3.73,3.73,0,0,1-.52-2,4.19,4.19,0,0,1,.64-2.23,4.49,4.49,0,0,1,2-1.63,8.12,8.12,0,0,1,3.39-.62,10.4,10.4,0,0,1,2.71.36,7.53,7.53,0,0,1,2.33,1l-.74,1.79a7.37,7.37,0,0,0-2.12-1,8.47,8.47,0,0,0-2.18-.3,6.08,6.08,0,0,0-2.17.33,2.69,2.69,0,0,0-1.24.9,2.13,2.13,0,0,0-.39,1.25,1.71,1.71,0,0,0,.52,1.32,3.86,3.86,0,0,0,1.37.79,18,18,0,0,0,1.85.52c.67.16,1.34.33,2,.53a8.62,8.62,0,0,1,1.86.76,3.89,3.89,0,0,1,1.36,1.25,3.67,3.67,0,0,1,.51,2,4,4,0,0,1-.65,2.2,4.48,4.48,0,0,1-2,1.64A8.31,8.31,0,0,1,111.71,223.41Z" transform="translate(-18.96 -26.71)"/>
      <path class="cls-1" d="M123.29,223.23h-2.24V207.56h2.24Zm9.2-7h-9.43V214.3h9.43Zm-.2-8.69h2.24v15.67h-2.24Z" transform="translate(-18.96 -26.71)"/>
      <path class="cls-1" d="M139.23,223.23V207.56h1.83l10.37,12.88h-1V207.56h2.24v15.67h-1.84L140.5,210.36h1v12.87Z" transform="translate(-18.96 -26.71)"/>
      <path class="cls-1" d="M157.41,223.23V207.56h2.24v15.67Z" transform="translate(-18.96 -26.71)"/>
      <path class="cls-1" d="M164.35,223.23V207.56h2.23v15.67Zm2-3.78-.12-2.73,8.89-9.16h2.55l-6.87,7.26-1.25,1.39Zm9.13,3.78L169,215.76l1.5-1.66,7.55,9.13Z" transform="translate(-18.96 -26.71)"/>
    </g>
  </g>
</svg>
