<svg id="Слой_1" data-name="Слой 1" xmlns="http://www.w3.org/2000/svg" viewBox="0 0 332.59 222.49">
  <defs>
    <style>
      .cls-1 {
        fill: #1d1d1b;
      }

      .cls-2 {
        fill: #649430;
      }
    </style>
  </defs>
  <g>
    <g>
      <path class="cls-1" d="M57.9,182.72a17,17,0,0,0-13.3,5.72A18.17,18.17,0,0,0,39.5,201a17.21,17.21,0,0,0,5.65,13.3,22.64,22.64,0,0,0,6,3.87,17.48,17.48,0,0,0,6.8,1.23,20.32,20.32,0,0,0,4.79-.69,18.16,18.16,0,0,0,5.65-2.63L71,220a23.49,23.49,0,0,1-13.14,4.17,23.41,23.41,0,0,1-8.89-1.7,21.66,21.66,0,0,1-7.42-5,24.85,24.85,0,0,1-5.18-7.57,26.29,26.29,0,0,1-1.7-8.82,22.45,22.45,0,0,1,3.09-11.59,23.09,23.09,0,0,1,20-11.6h4.71a12.54,12.54,0,0,1,9.51,5,7.27,7.27,0,0,1,1.24,4.41,4.38,4.38,0,0,1-.16,1.47,7.53,7.53,0,0,1-1.23,2.59A9.67,9.67,0,0,1,70,193c-.7.52-1.48,1.09-2.36,1.71a36.48,36.48,0,0,1,7.77,3,17.34,17.34,0,0,1,5.53,5,26,26,0,0,1-20.8,41.59,25,25,0,0,1-11.67-2.86,25.8,25.8,0,0,1-9-7.5l3.87-2.71a18.74,18.74,0,0,0,2.78,3,22.73,22.73,0,0,0,6,3.48,22.78,22.78,0,0,0,8,1.77q8.82,0,13.3-4.4a28.79,28.79,0,0,0,6.18-8.51,21.07,21.07,0,0,0,1.78-8.27,20.35,20.35,0,0,0-2.86-10.51,11.07,11.07,0,0,0-2.78-3.36,48.26,48.26,0,0,0-5-3.21,22.43,22.43,0,0,0-10.66-2.86H54.19l2.63-4.57,2.63-.07a8.89,8.89,0,0,0,4.79-1.55c2.22-1.65,3.35-3.19,3.4-4.64a4.44,4.44,0,0,0-1.51-3.4,5.58,5.58,0,0,0-3.74-1.47Z" transform="translate(-34.71 -23.55)"/>
      <path class="cls-1" d="M97.23,237.53h-4.8V225.94l-2.62,2.16-1.47-3.48,4.09-3.24V179.55h4.8V218l10.67-8.82V179.55h4.79v58H107.9V213.8l-10.67,8.81Z" transform="translate(-34.71 -23.55)"/>
      <path class="cls-1" d="M127.14,178.32l8.58,19.32,8.66-19.25,10.9,59.14h-4.87l-8-43.21-6.65,14.92-6.65-14.92-8,43.21h-4.87Z" transform="translate(-34.71 -23.55)"/>
      <path class="cls-1" d="M165.73,237.53h-4.8V198.65h-2.62L156.76,194h4.17V179.55h4.8V194H176.4V179.55h4.79v58H176.4V198.65H165.73Z" transform="translate(-34.71 -23.55)"/>
      <path class="cls-1" d="M194.11,237.53h-4.79V225.94l-2.63,2.16-1.47-3.48,4.1-3.24V179.55h4.79V218l10.67-8.82V179.55h4.8v58h-4.8V213.8l-10.67,8.81Z" transform="translate(-34.71 -23.55)"/>
      <path class="cls-1" d="M238,237.53h-4.79V213.8l-10.67,8.81v14.92h-4.79V225.94l-2.63,2.16-1.47-3.48,4.1-3.24V179.55h4.79V218l10.67-8.82V179.55H238Zm-3.86-65.94a19,19,0,0,1,2,2,14.7,14.7,0,0,1-3.79,3.9,8,8,0,0,1-4.33,1.13,8.09,8.09,0,0,1-4.33-1.09,13.79,13.79,0,0,1-3.79-3.94q.93-1,2-2a17.88,17.88,0,0,0,3.29,3.25,4.81,4.81,0,0,0,2.74.85,5.12,5.12,0,0,0,2.86-.85A16.94,16.94,0,0,0,234.1,171.59Z" transform="translate(-34.71 -23.55)"/>
      <path class="cls-1" d="M297.49,232.74v4.72a32.79,32.79,0,0,1-15.23-3.71,27.72,27.72,0,0,1-15.08-25.05,27.92,27.92,0,0,1,15.08-25.28,31.9,31.9,0,0,1,15.23-3.87v4.8q-10.12,0-15.69,4.87a31.23,31.23,0,0,0-7.66,9.35,24.33,24.33,0,0,0,1,22,24.87,24.87,0,0,0,9,8.89A26.72,26.72,0,0,0,297.49,232.74Z" transform="translate(-34.71 -23.55)"/>
      <path class="cls-1" d="M305.06,198.65h-2.62L300.89,194h4.17v-5a10,10,0,0,1,2.79-7A9.55,9.55,0,0,1,315,179a8.72,8.72,0,0,1,3.94.78,9.57,9.57,0,0,1,3,2.08,12.26,12.26,0,0,1,2.24,3.17,11,11,0,0,1,.77,3.94v48.55h-4.71V198.65H309.86v38.88h-4.8ZM320.22,194v-5a5.41,5.41,0,0,0-1.39-3.71,4.7,4.7,0,0,0-3.87-1.62A5.36,5.36,0,0,0,311.4,185a5.08,5.08,0,0,0-1.54,3.94v5Z" transform="translate(-34.71 -23.55)"/>
      <path class="cls-1" d="M341.4,177.93c3.45.1,7.24.17,11.36.19s7.27,0,9.44,0v55.05h5.1v8.65L362.5,246v-8.51H333.44L329.57,246l-2.63-4q.15,0,2.94-8.43c.41,0,.9,0,1.47,0l1.31,0a45.31,45.31,0,0,0,2.71-5.91q1-2.74,2.55-7.69a87.29,87.29,0,0,0,2.28-9.24,72.81,72.81,0,0,0,1.08-8.39c.18-2.68.27-5.61.27-8.81q0-2.25-.07-7.38C341.42,182.66,341.4,179.94,341.4,177.93Zm15.54,55.58V182.8H346.27q.23,0,.23,8.74c0,3.4-.11,7-.35,10.74s-.63,7.53-1.2,11.29a55,55,0,0,1-2.39,10.05q-1.08,3.09-1.82,4.91c-.49,1.21-1.27,2.87-2.36,5Z" transform="translate(-34.71 -23.55)"/>
    </g>
    <g>
      <path class="cls-2" d="M257.16,161.59H143.61a2,2,0,0,1,0-4H257.16a2,2,0,0,1,0,4Z" transform="translate(-34.71 -23.55)"/>
      <path class="cls-2" d="M257.16,132H206.11a2,2,0,0,1,0-4h51.05a2,2,0,0,1,0,4Z" transform="translate(-34.71 -23.55)"/>
      <path class="cls-2" d="M212.92,119.05a2,2,0,0,1-1.41-.58,2,2,0,0,1,0-2.83L253.45,73.4a2,2,0,1,1,2.84,2.82l-42,42.24A2,2,0,0,1,212.92,119.05Z" transform="translate(-34.71 -23.55)"/>
      <path class="cls-2" d="M221.31,110.6a2,2,0,0,1,0-4l22.51-.14h0a2,2,0,0,1,0,4l-22.5.14Z" transform="translate(-34.71 -23.55)"/>
      <path class="cls-2" d="M204.76,84.43a2,2,0,0,1-1.41-.58,2,2,0,0,1,0-2.83l17.74-18a2,2,0,0,1,2.85,2.81l-17.75,18A2,2,0,0,1,204.76,84.43Z" transform="translate(-34.71 -23.55)"/>
      <path class="cls-2" d="M204.55,61.71a2,2,0,0,1-1.39-3.44l12.31-11.8a2,2,0,1,1,2.77,2.89L205.93,61.15A2,2,0,0,1,204.55,61.71Z" transform="translate(-34.71 -23.55)"/>
      <path class="cls-2" d="M200.8,60.72a2,2,0,0,1-2-2l-.16-33.17a2,2,0,0,1,2-2h0a2,2,0,0,1,2,2l.16,33.17a2,2,0,0,1-2,2Z" transform="translate(-34.71 -23.55)"/>
      <path class="cls-2" d="M200.8,81.74a2,2,0,0,1-2-2V68.85a2,2,0,1,1,4,0V79.74A2,2,0,0,1,200.8,81.74Z" transform="translate(-34.71 -23.55)"/>
      <path class="cls-2" d="M200.8,104.28a2,2,0,0,1-2-2V90.63a2,2,0,0,1,4,0v11.65A2,2,0,0,1,200.8,104.28Z" transform="translate(-34.71 -23.55)"/>
      <path class="cls-2" d="M200.8,126.06a2,2,0,0,1-2-2V112.41a2,2,0,0,1,4,0v11.65A2,2,0,0,1,200.8,126.06Z" transform="translate(-34.71 -23.55)"/>
      <path class="cls-2" d="M233.89,97.93a2,2,0,0,1-2-2V79a2,2,0,1,1,4,0v17A2,2,0,0,1,233.89,97.93Z" transform="translate(-34.71 -23.55)"/>
      <path class="cls-2" d="M195.54,132H143.61a2,2,0,0,1,0-4h51.93a2,2,0,0,1,0,4Z" transform="translate(-34.71 -23.55)"/>
      <path class="cls-2" d="M200.8,136.19a7.07,7.07,0,1,1,7.07-7.06A7.07,7.07,0,0,1,200.8,136.19Zm0-10.13a3.07,3.07,0,1,0,3.07,3.07A3.07,3.07,0,0,0,200.8,126.06Z" transform="translate(-34.71 -23.55)"/>
      <path class="cls-2" d="M200.8,114.41a7.07,7.07,0,1,1,7.07-7.06A7.07,7.07,0,0,1,200.8,114.41Zm0-10.13a3.07,3.07,0,1,0,3.07,3.07A3.07,3.07,0,0,0,200.8,104.28Z" transform="translate(-34.71 -23.55)"/>
      <path class="cls-2" d="M200.8,92.63a7.07,7.07,0,1,1,7.07-7.06A7.07,7.07,0,0,1,200.8,92.63Zm0-10.13a3.07,3.07,0,1,0,3.07,3.07A3.07,3.07,0,0,0,200.8,82.5Z" transform="translate(-34.71 -23.55)"/>
      <path class="cls-2" d="M200.8,70.85a7.07,7.07,0,1,1,7.07-7.06A7.07,7.07,0,0,1,200.8,70.85Zm0-10.13a3.07,3.07,0,1,0,3.07,3.07A3.07,3.07,0,0,0,200.8,60.72Z" transform="translate(-34.71 -23.55)"/>
      <path class="cls-2" d="M208.05,132a2,2,0,0,1-.53-3.93c6-1.64,36.17-11.12,43.8-37.21a43.62,43.62,0,0,0,1.67-14,54.58,54.58,0,0,0-26.27,8C218.1,90.09,210,100.35,206.89,105a2,2,0,1,1-3.34-2.2c3.26-5,11.85-15.79,21.08-21.45a58.6,58.6,0,0,1,30.22-8.58h0a2,2,0,0,1,2,1.84A47.74,47.74,0,0,1,255.16,92c-8.22,28.13-40.25,38.21-46.58,39.94A2,2,0,0,1,208.05,132Z" transform="translate(-34.71 -23.55)"/>
      <path class="cls-2" d="M205.61,129.54a2,2,0,0,1-1.57-3.25,78.34,78.34,0,0,0,12.29-21.84c3.61-9.87,10.59-35.42-2.55-59.58a64,64,0,0,0-14.45-17.81A2,2,0,0,1,202,24,67.52,67.52,0,0,1,217.29,43c13.93,25.59,6.6,52.49,2.8,62.87a82.92,82.92,0,0,1-12.91,23A2,2,0,0,1,205.61,129.54Z" transform="translate(-34.71 -23.55)"/>
      <path class="cls-2" d="M188.76,119.05a2,2,0,0,1-1.42-.59l-42-42.24a2,2,0,1,1,2.84-2.82l42,42.24a2,2,0,0,1,0,2.83A2,2,0,0,1,188.76,119.05Z" transform="translate(-34.71 -23.55)"/>
      <path class="cls-2" d="M180.37,110.6h0l-22.5-.14a2,2,0,0,1,0-4h0l22.5.14a2,2,0,0,1,0,4Z" transform="translate(-34.71 -23.55)"/>
      <path class="cls-2" d="M196.92,84.43a2,2,0,0,1-1.42-.6l-17.75-18A2,2,0,1,1,180.6,63l17.74,18a2,2,0,0,1,0,2.83A2,2,0,0,1,196.92,84.43Z" transform="translate(-34.71 -23.55)"/>
      <path class="cls-2" d="M197.13,61.71a2,2,0,0,1-1.38-.56L183.44,49.36a2,2,0,0,1,2.77-2.89l12.31,11.8a2,2,0,0,1-1.39,3.44Z" transform="translate(-34.71 -23.55)"/>
      <path class="cls-2" d="M167.79,97.93a2,2,0,0,1-2-2V79a2,2,0,0,1,4,0v17A2,2,0,0,1,167.79,97.93Z" transform="translate(-34.71 -23.55)"/>
      <path class="cls-2" d="M193.63,132a2,2,0,0,1-.53-.08c-6.33-1.73-38.36-11.81-46.58-39.94a47.74,47.74,0,0,1-1.7-17.31,2,2,0,0,1,2-1.84h0a58.6,58.6,0,0,1,30.22,8.58c9.23,5.66,17.82,16.5,21.08,21.45a2,2,0,1,1-3.34,2.2c-3.09-4.69-11.2-15-19.83-20.24a54.58,54.58,0,0,0-26.27-8,43.62,43.62,0,0,0,1.67,14c7.63,26.09,37.82,35.57,43.8,37.21a2,2,0,0,1-.53,3.93Z" transform="translate(-34.71 -23.55)"/>
      <path class="cls-2" d="M196.07,129.54a2,2,0,0,1-1.57-.76,82.78,82.78,0,0,1-12.91-23c-3.8-10.38-11.13-37.28,2.8-62.87A67.69,67.69,0,0,1,199.73,24a2,2,0,0,1,2.62,3A63.88,63.88,0,0,0,187.9,44.87c-13.14,24.16-6.16,49.71-2.55,59.58a78.34,78.34,0,0,0,12.29,21.84,2,2,0,0,1-.33,2.81A2,2,0,0,1,196.07,129.54Z" transform="translate(-34.71 -23.55)"/>
    </g>
  </g>
</svg>
